<svg width="90" height="90" viewBox="0 0 90 90" fill="none" xmlns="http://www.w3.org/2000/svg">
<path d="M22.5 57.4688C23.375 57.0312 24.2812 56.7188 25.2188 56.5312C26.1562 56.3438 27.125 56.25 28.125 56.25H30V15H28.125C26.5625 15 25.2337 15.5475 24.1387 16.6425C23.0437 17.7375 22.4975 19.065 22.5 20.625V57.4688ZM37.5 56.25H67.5V15H37.5V56.25ZM28.125 82.5C24.5 82.5 21.4063 81.2188 18.8438 78.6562C16.2813 76.0938 15 73 15 69.375V20.625C15 17 16.2813 13.9063 18.8438 11.3438C21.4063 8.78125 24.5 7.5 28.125 7.5H67.5C69.5625 7.5 71.3288 8.23375 72.7988 9.70125C74.2687 11.1687 75.0025 12.935 75 15V61.9688C75 62.4688 74.7962 62.9225 74.3887 63.33C73.9813 63.7375 73.2475 64.19 72.1875 64.6875C71.3125 65.125 70.625 65.75 70.125 66.5625C69.625 67.375 69.375 68.3125 69.375 69.375C69.375 70.4375 69.625 71.3913 70.125 72.2363C70.625 73.0813 71.3125 73.69 72.1875 74.0625C73.0625 74.4375 73.75 74.9538 74.25 75.6113C74.75 76.2688 75 76.9713 75 77.7188V78.6562C75 79.7188 74.64 80.625 73.92 81.375C73.2 82.125 72.31 82.5 71.25 82.5H28.125ZM28.125 75H63.0938C62.7188 74.125 62.4225 73.2337 62.205 72.3263C61.9875 71.4188 61.8775 70.435 61.875 69.375C61.875 68.375 61.9688 67.4062 62.1563 66.4688C62.3438 65.5312 62.6563 64.625 63.0938 63.75H28.125C26.5 63.75 25.1563 64.2975 24.0938 65.3925C23.0313 66.4875 22.5 67.815 22.5 69.375C22.5 71 23.0313 72.3438 24.0938 73.4062C25.1563 74.4688 26.5 75 28.125 75Z" fill="black"/>
</svg>
