<svg width="90" height="90" viewBox="0 0 90 90" fill="none" xmlns="http://www.w3.org/2000/svg">
<g clip-path="url(#clip0_342_21)">
<path d="M23.6667 -8.33337H66.3333C69.1623 -8.33337 71.8754 -7.20957 73.8758 -5.20918C75.8762 -3.20879 77 -0.495683 77 2.33329V87.6666C77 90.4956 75.8762 93.2087 73.8758 95.2091C71.8754 97.2095 69.1623 98.3333 66.3333 98.3333H23.6667C20.8377 98.3333 18.1246 97.2095 16.1242 95.2091C14.1238 93.2087 13 90.4956 13 87.6666V2.33329C13 -0.495683 14.1238 -3.20879 16.1242 -5.20918C18.1246 -7.20957 20.8377 -8.33337 23.6667 -8.33337ZM23.6667 2.33329V87.6666H66.3333V2.33329H23.6667ZM34.3333 50.3333H45V71.6666H34.3333V50.3333ZM34.3333 13H55.6667V21H34.3333V13ZM34.3333 29H55.6667V37H34.3333V29Z" fill="black"/>
</g>
<defs>
<clipPath id="clip0_342_21">
<rect width="90" height="90" fill="black"/>
</clipPath>
</defs>
</svg>
