<svg width="180" height="173" viewBox="0 0 180 173" fill="none" xmlns="http://www.w3.org/2000/svg">
<path d="M93.9539 0H86.0462C38.5242 0 0 38.5242 0 86.0461C0 133.568 38.5242 172.092 86.0462 172.092H93.9539C141.476 172.092 180 133.568 180 86.0461C180 38.5242 141.476 0 93.9539 0Z" fill="#B84040"/>
<path d="M53.1905 59.7606C52.7412 60.3447 52.3758 60.9887 52.105 61.6741C49.9975 67.008 54.098 72.7392 59.8267 72.4664L61.6536 72.3794L74.6136 71.7177L85.823 71.1318C86.544 71.0941 87.2669 71.1529 87.9724 71.3067L90.5913 71.8774C92.0016 72.1848 93.1153 73.2661 93.4642 74.6668C93.5389 74.9667 93.5766 75.2745 93.5766 75.5836V76.5728C93.5766 79.0689 92.7889 81.5014 91.3257 83.5237L86.8487 89.7115C85.3375 91.8001 83.5715 93.692 81.5918 95.3433C79.3166 97.2409 76.7811 98.8025 74.0626 99.9802L69.4305 101.987L53.7417 106.552C48.5849 107.729 45.2051 112.68 45.9867 117.911L46.3952 120.645C46.6498 122.35 47.3456 123.958 48.4134 125.311L50.9626 128.54C51.7445 129.531 53.0228 129.989 54.256 129.721C54.6373 129.638 55.0009 129.488 55.3299 129.279L59.2627 126.771C60.7624 125.814 62.3457 124.996 63.9932 124.326L74.34 120.116L84.8448 116.426L104.081 111.769L129.761 106.321C130.263 106.215 130.738 106.012 131.162 105.722L132.501 104.807C133.772 103.939 133.977 102.145 132.935 101.013C132.304 100.328 132.102 99.3515 132.408 98.4723L134.25 93.1892C134.688 91.9336 134.912 90.6133 134.912 89.2835V85.7699C134.912 82.9479 135.369 80.1445 136.266 77.4688L138.412 71.0644C139.057 69.1381 138.975 67.0421 138.181 65.1722C137.506 63.5821 136.352 62.2417 134.88 61.3375L134.179 60.9068C132.776 60.045 131.196 59.5125 129.558 59.3493L127.854 59.1796C126.29 59.0239 124.753 58.6678 123.28 58.1202L115.676 55.2932L107.107 51.2598C106.909 51.1667 106.729 51.0406 106.574 50.8868C105.319 49.6446 106.264 47.5105 108.027 47.6042L110.741 47.7483C113.26 47.8821 114.515 43.554 111.992 43.554C111.573 43.554 105.648 42.4715 101.138 41.6362C97.7385 41.0065 94.2908 40.6843 90.8329 40.6843H88.6645C84.9444 40.6843 81.2422 41.1999 77.6637 42.2163C73.0303 43.5322 68.6706 45.6688 64.7919 48.5245L61.5814 50.8882C59.1862 52.6517 57.0506 54.7428 55.237 57.1002L53.1905 59.7606Z" fill="#4E8DCB"/>
<path d="M105.815 49.5546C105.931 50.0346 106.271 50.4295 106.728 50.6162L127.006 58.8941C127.436 59.0698 127.897 59.1602 128.362 59.1602H129.005C131.281 59.1602 132.813 56.8294 131.91 54.74C131.073 51.7726 128.496 49.6264 125.426 49.3397L107.453 47.6609C106.401 47.5627 105.566 48.5286 105.815 49.5546Z" fill="#1C1D3D"/>
<path d="M56.4391 73.3664C50.3454 73.9535 45.2037 78.15 43.4074 84.0024C43.0645 85.1196 42.852 86.2728 42.7741 87.4389L41.918 100.261C41.8877 100.715 41.9025 101.17 41.9622 101.621L42.0983 102.649C42.5324 105.927 45.5904 108.199 48.8547 107.667L57.7908 105.373L69.4296 101.986L69.7453 101.849C75.3218 99.4335 80.4906 96.1686 85.068 92.1709L89.7151 87.0869C90.7236 85.9836 91.5584 84.7333 92.191 83.379L92.6835 82.3247C93.2717 81.0654 93.5766 79.6924 93.5766 78.3024V77.0624C93.5766 75.8008 93.1654 74.5735 92.4054 73.5666C91.6468 72.5616 90.582 71.8306 89.3715 71.4839L86.9228 70.7826C85.1916 70.2868 83.3783 70.1444 81.5909 70.364L59.7438 73.048L56.4391 73.3664Z" fill="#1C1D3D"/>
<path d="M65.3373 77.5964C65.2428 77.617 65.328 77.5546 65.5609 77.4427C67.4968 76.5117 67.4363 77.1398 65.3373 77.5964Z" fill="#9E9ECE"/>
<path d="M40.8177 108.856L40.9896 110.026L42.2253 109.988C42.2559 109.987 42.3747 109.982 42.5745 109.973C42.8283 111.351 43.5555 115.067 44.7048 119.144C45.5472 122.132 46.4427 124.687 47.3661 126.737C48.5973 129.47 49.8636 131.3 51.2361 132.332L52.0641 132.954L52.9083 132.352C52.9614 132.314 58.3857 128.488 68.6214 124.011C78.066 119.881 93.6558 114.336 114.295 111.376C122.67 110.175 128.693 108.582 132.196 106.642C135.06 105.055 135.433 103.654 135.46 103.125L135.489 102.564L132.338 99.3833C132.724 98.429 133.442 97.2924 134.194 96.1024C135.629 93.8333 137.759 90.3476 137.759 90.3476C135.179 76.982 138.687 70.7411 139.626 69.4246L139.865 69.089V68.6829C139.865 68.6011 139.855 66.6479 139.032 64.3866C137.993 61.5359 136.12 59.4321 133.591 58.2627L130.759 48.3381L122.119 47.5904C121.115 46.8341 118.03 44.682 113.083 42.7314C109.581 41.3503 105.856 40.3522 102.011 39.7645C97.2135 39.0314 92.2158 38.9385 87.156 39.4892C81.4923 40.1052 76.3281 41.3047 71.8083 43.054C67.383 44.7664 63.4365 47.0595 60.0786 49.8689C56.8233 52.5914 54.0234 55.8818 51.7545 59.6489C49.5801 63.2585 47.8251 67.4232 46.5381 72.0258C46.467 72.2796 46.3968 72.5369 46.3266 72.7968C46.2168 72.7993 46.1088 72.8019 46.0044 72.8045L45.0936 72.8226L44.7552 73.6314C44.6859 73.7975 43.0416 77.7633 41.7249 84.1015C40.9536 87.8153 40.4559 91.578 40.2471 95.2841C39.9861 99.9262 40.1778 104.492 40.8177 108.856ZM47.0025 75.4108L47.4723 75.3902C50.2533 75.268 54.3393 74.941 58.8366 74.528C58.8429 74.5271 58.8501 74.5271 58.8564 74.5263C58.9482 74.5177 59.0409 74.5091 59.1336 74.5005C59.2011 74.4944 59.2686 74.4876 59.337 74.4815C59.3712 74.4781 59.4045 74.4755 59.4387 74.4721C69.0417 73.5806 80.3133 72.3226 84.8484 71.8072C84.852 71.8072 84.8547 71.8064 84.8583 71.8064C84.987 71.7917 85.1139 71.7788 85.239 71.7676C85.2903 71.7633 85.3407 71.7599 85.392 71.7565C85.4676 71.7504 85.5441 71.7444 85.6188 71.7401C85.6755 71.7367 85.7304 71.7349 85.7862 71.7324C85.8537 71.7289 85.9212 71.7255 85.9878 71.7238C86.0436 71.722 86.0985 71.722 86.1534 71.7212C86.2182 71.7203 86.2839 71.7186 86.3469 71.7186C86.3631 71.7186 86.3793 71.7195 86.3964 71.7195C86.4864 71.7203 86.5755 71.7212 86.6637 71.7246C86.6961 71.7255 86.7285 71.7272 86.7609 71.7281C86.8365 71.7315 86.9112 71.7349 86.9859 71.7401C87.0147 71.7418 87.0435 71.7435 87.0723 71.7461C87.1722 71.7539 87.2703 71.7625 87.3666 71.7728C87.3783 71.7737 87.3891 71.7754 87.4008 71.7771C87.4863 71.7866 87.5709 71.7978 87.6546 71.8098C87.6834 71.8141 87.7113 71.8184 87.7401 71.8227C87.8094 71.8339 87.8787 71.8451 87.9462 71.858C87.9723 71.8632 87.9984 71.8675 88.0236 71.8726C88.1145 71.8907 88.2036 71.9096 88.2918 71.9311C88.2981 71.9328 88.3044 71.9346 88.3107 71.9363C88.3926 71.9561 88.4718 71.9776 88.551 72C88.5762 72.0069 88.6014 72.0146 88.6257 72.0223C88.6887 72.0413 88.7508 72.0611 88.8129 72.0817C88.8363 72.0895 88.8597 72.0972 88.8831 72.1049C88.965 72.1333 89.046 72.1635 89.1252 72.1953C89.1279 72.1962 89.1306 72.1979 89.1333 72.1987C89.2098 72.2297 89.2845 72.2615 89.3583 72.296C89.3808 72.3063 89.4033 72.3166 89.4258 72.3278C89.4816 72.3545 89.5374 72.382 89.5914 72.4095C89.613 72.4207 89.6346 72.4319 89.6562 72.4431C89.7291 72.4818 89.8011 72.5223 89.8713 72.5644C89.9181 72.5928 89.9649 72.6212 90.0108 72.6505C91.3392 73.4929 92.0763 74.6407 92.2554 76.1491C92.268 76.2532 92.277 76.3591 92.2842 76.4666C92.2932 76.6077 92.2977 76.7514 92.2977 76.8969C92.2968 78.7167 91.5705 80.8817 90.1719 83.2445C89.892 83.7169 89.586 84.1979 89.253 84.6849C86.9724 88.0235 83.5254 91.5393 79.2855 94.8547C79.1721 94.9433 79.0578 95.0311 78.9444 95.1188C78.9156 95.1412 78.8868 95.1627 78.858 95.1851C78.768 95.2531 78.678 95.3219 78.588 95.389C78.5619 95.408 78.5367 95.4278 78.5106 95.4467C78.4044 95.5258 78.2982 95.605 78.1911 95.6824C78.1848 95.6867 78.1794 95.6911 78.1731 95.6954C72.7434 99.6595 66.537 102.251 61.0866 103.933C55.4661 105.659 50.3028 106.523 46.8108 106.951C45.3609 107.127 44.1891 107.231 43.3818 107.289C42.2478 98.2759 43.299 90.0731 44.4132 84.6866C45.3438 80.1701 46.4688 76.8547 47.0025 75.4108ZM128.608 50.7956L130.521 57.5003C129.382 57.4212 127.925 57.5115 126.31 58.0674L105.307 49.0256L121.464 50.1769L128.608 50.7956ZM45.3303 109.762C46.8927 109.609 48.9726 109.353 51.4062 108.934C51.4224 108.932 51.4386 108.929 51.4539 108.926C51.5664 108.906 51.6798 108.886 51.7941 108.866C51.8382 108.859 51.8823 108.851 51.9264 108.843C52.0407 108.823 52.155 108.802 52.2702 108.781C52.3602 108.765 52.4502 108.748 52.5402 108.731C52.5699 108.725 52.6005 108.72 52.6311 108.714C53.8524 108.486 55.1466 108.218 56.4948 107.903C56.5074 107.899 56.5209 107.897 56.5335 107.893C57.0474 107.773 57.5685 107.645 58.0968 107.511C58.1418 107.5 58.1868 107.488 58.2327 107.477C58.6611 107.368 59.0922 107.253 59.5287 107.134C59.5764 107.121 59.6241 107.108 59.6718 107.095C59.7879 107.063 59.904 107.03 60.0201 106.998C60.1776 106.954 60.3342 106.909 60.4908 106.864C60.5853 106.837 60.6807 106.809 60.7752 106.782C60.957 106.729 61.1388 106.676 61.3197 106.621C61.3818 106.603 61.4439 106.584 61.506 106.566C61.7238 106.5 61.9398 106.434 62.1558 106.367C62.1774 106.36 62.199 106.353 62.2215 106.346C68.7708 104.309 74.475 101.583 79.2342 98.2174C79.2486 98.207 79.2639 98.1967 79.2783 98.1864C79.362 98.127 79.4457 98.0668 79.5285 98.0074C79.6221 97.9403 79.7148 97.8732 79.8066 97.8061C79.8633 97.7648 79.9209 97.7235 79.9776 97.6813C80.1279 97.5712 80.2764 97.4593 80.424 97.3483C80.4672 97.3156 80.5104 97.2829 80.5527 97.2502C80.7111 97.1297 80.8686 97.0093 81.0243 96.8871C81.882 96.2168 82.7046 95.5422 83.4921 94.8641C83.7549 94.6378 84.0132 94.4124 84.267 94.1852C84.3939 94.0717 84.5208 93.9589 84.6459 93.8454C91.4049 87.7249 95.211 81.465 95.0409 76.569C95.0382 76.4787 95.0328 76.3883 95.0274 76.298C94.8708 73.9042 93.7368 71.9415 91.7406 70.5931C91.6074 70.5036 91.4706 70.4159 91.3302 70.3315C89.9208 69.4866 88.2531 69.0744 86.2668 69.0847C85.7106 69.0873 85.1292 69.1234 84.5217 69.1931C84.4686 69.1992 84.4146 69.2052 84.3588 69.2112C84.3507 69.2121 84.3417 69.2129 84.3327 69.2138C84.285 69.219 84.2364 69.225 84.1869 69.2301C84.1599 69.2336 84.1329 69.2362 84.105 69.2396C84.0915 69.2413 84.0789 69.2422 84.0654 69.2439C81.9297 69.4857 78.4872 69.8712 74.4903 70.3006C74.5893 70.0691 74.6955 69.8402 74.8053 69.6122C74.9385 69.3351 75.0843 69.0615 75.2337 68.7904C75.8358 67.7063 76.5594 66.6728 77.3685 65.6954C77.7735 65.2066 78.1992 64.7316 78.6447 64.2722C79.0893 63.8118 79.5528 63.3661 80.0316 62.9359C80.5104 62.5056 81.0045 62.09 81.513 61.6942C81.7668 61.4963 82.0242 61.3027 82.2834 61.1151C82.413 61.0213 82.5435 60.9301 82.6731 60.8406L82.6749 60.8389L105.733 62.5857C105.747 62.602 105.763 62.6184 105.777 62.6347C105.926 62.8025 106.074 62.9746 106.219 63.1493C106.51 63.4995 106.791 63.86 107.064 64.2283C107.609 64.9657 108.117 65.7332 108.584 66.5249C109.051 67.3165 109.477 68.1331 109.857 68.9703C110.234 69.8084 110.569 70.6671 110.844 71.5448C111.399 73.2984 111.733 75.1269 111.794 76.9812C111.812 77.445 111.807 77.9096 111.791 78.3743L111.774 78.7236C111.768 78.8398 111.757 78.9559 111.749 79.0721C111.734 79.3053 111.707 79.5367 111.684 79.7699C111.628 80.2337 111.561 80.6984 111.47 81.1596C111.386 81.6225 111.274 82.0803 111.157 82.538C111.329 82.0966 111.496 81.6518 111.638 81.1983C111.785 80.7466 111.909 80.2871 112.023 79.8241C112.075 79.5918 112.132 79.3604 112.176 79.1263C112.198 79.0093 112.225 78.8923 112.244 78.7752L112.305 78.4225C112.379 77.9509 112.443 77.4759 112.483 76.9992C112.653 75.0899 112.54 73.147 112.183 71.2402C112.007 70.2859 111.765 69.342 111.474 68.4093C111.181 67.4782 110.835 66.561 110.44 65.6601C110.045 64.76 109.602 63.8772 109.111 63.015C108.865 62.5839 108.607 62.1571 108.333 61.7364C108.196 61.5256 108.056 61.3165 107.91 61.1074C107.836 61.0024 107.762 60.8983 107.686 60.7933L107.568 60.635L107.506 60.5541C107.483 60.5249 107.466 60.5025 107.433 60.462L107.065 60.0482L106.495 60.0051L82.4022 58.1792L81.9252 58.1431L81.5436 58.3875L81.4113 58.4718L81.2934 58.5492L81.0657 58.7033C80.9163 58.8065 80.7696 58.9098 80.6238 59.0147C80.334 59.2247 80.0496 59.4381 79.7697 59.6566C79.2108 60.0929 78.6699 60.5472 78.1452 61.0196C77.6205 61.4912 77.112 61.9799 76.6224 62.4876C76.1319 62.9944 75.6612 63.5201 75.2103 64.0631C74.3103 65.1507 73.494 66.314 72.8028 67.5565C72.6318 67.868 72.4644 68.1821 72.3105 68.503C72.1557 68.8231 72.0063 69.1475 71.8704 69.4771C71.7318 69.8058 71.6049 70.1396 71.4879 70.4778L71.4366 70.6267C63.7362 71.4381 54.81 72.3158 49.2084 72.6608C54.3465 54.3399 66.861 44.3456 87.4665 42.1032C98.3529 40.9184 106.835 43.1134 112.034 45.163C113.74 45.8359 115.206 46.5329 116.422 47.1774L103.115 46.2291L101.753 50.3783L126.256 60.9267L126.81 60.7021C131.714 58.9829 135.788 62.8954 136.709 65.2212C137.339 66.8131 137.095 68.3335 137.095 68.3335C135.917 70.2851 133.625 75.8979 133.199 81.1398C132.851 85.4223 133.483 89.3004 133.483 90.9095C133.483 90.9095 129.807 97.9566 129.445 99.4255L129.275 100.116L132.385 103.255C131.354 104.276 127.507 106.82 113.886 108.774C104.613 110.103 95.5584 112.055 86.9724 114.575C80.0982 116.592 73.5066 118.976 67.3803 121.66C65.142 122.641 63.135 123.587 61.3593 124.47C61.3548 124.27 61.3602 124.07 61.3593 123.87C61.3647 123.656 61.3674 123.442 61.3782 123.228L61.3926 122.907L61.4133 122.586C61.425 122.371 61.4475 122.158 61.4646 121.945C61.4871 121.731 61.5069 121.519 61.5348 121.306C61.5591 121.094 61.5906 120.882 61.6203 120.669C61.6527 120.458 61.686 120.247 61.7238 120.036C61.7409 119.93 61.7616 119.826 61.7814 119.721C61.8012 119.616 61.821 119.511 61.8435 119.407C61.8858 119.198 61.9317 118.99 61.9794 118.782C62.028 118.575 62.0784 118.369 62.1324 118.164C62.1855 117.958 62.244 117.755 62.3034 117.554C62.3403 117.431 62.3781 117.309 62.4168 117.188L62.9811 117.024C63.4572 116.884 63.9306 116.737 64.4058 116.593C64.8801 116.449 65.3526 116.296 65.8251 116.146C66.0609 116.07 66.2985 115.996 66.5334 115.919L67.2399 115.684L67.9455 115.449L68.6493 115.207L69.3522 114.965L70.0533 114.714C70.5204 114.546 70.9875 114.379 71.4519 114.206C71.9172 114.034 72.3825 113.863 72.8442 113.682L73.5381 113.413C73.7694 113.324 73.9989 113.23 74.2293 113.139L74.9205 112.863L75.609 112.581C75.8376 112.486 76.068 112.394 76.2966 112.297L76.9806 112.005C77.4369 111.812 77.8896 111.61 78.3432 111.41C78.57 111.311 78.7959 111.209 79.0218 111.106L79.6986 110.799C80.1486 110.592 80.5968 110.381 81.0432 110.166C81.4878 109.948 81.9351 109.736 82.3761 109.511L83.0394 109.178L83.6991 108.837L84.0285 108.667L84.3561 108.492L85.0104 108.144C85.4433 107.904 85.8798 107.672 86.3073 107.424C87.1677 106.938 88.0173 106.433 88.8552 105.912C89.6931 105.39 90.5229 104.856 91.3311 104.292C92.1411 103.73 92.9358 103.15 93.7116 102.546C94.4874 101.943 95.2407 101.313 95.9688 100.658C96.6942 100.001 97.398 99.3213 98.0559 98.602C98.7156 97.8852 99.3357 97.1349 99.8946 96.3459C100.173 95.9509 100.438 95.5474 100.674 95.1283C100.792 94.9192 100.904 94.7067 101.007 94.4907C101.109 94.2747 101.206 94.0553 101.278 93.829C101.18 94.0458 101.058 94.2515 100.933 94.4537C100.807 94.6551 100.672 94.8521 100.532 95.0448C100.252 95.4303 99.9522 95.8021 99.6372 96.1609C99.0072 96.8785 98.3241 97.5505 97.6068 98.1847C97.5177 98.2647 97.4277 98.3439 97.3368 98.4213L97.0641 98.6553C96.8787 98.8076 96.6969 98.9625 96.5097 99.1131C96.1389 99.4169 95.7573 99.7077 95.3739 99.9968C94.6035 100.57 93.8097 101.113 93.0024 101.637C92.1951 102.16 91.3707 102.659 90.5337 103.137C89.6967 103.616 88.8489 104.077 87.9894 104.519C87.1308 104.962 86.2632 105.388 85.3857 105.795C84.9483 106.001 84.5064 106.199 84.0672 106.4L83.403 106.694L83.0709 106.84L82.737 106.983L82.0692 107.268L81.3969 107.545C80.9505 107.732 80.4978 107.908 80.0478 108.089L78.6915 108.615L78.0102 108.872C77.7834 108.958 77.5566 109.043 77.328 109.125C76.8717 109.291 76.4172 109.458 75.9582 109.618L75.2715 109.859L74.583 110.097L73.8945 110.334L73.2033 110.565C72.9729 110.642 72.7425 110.72 72.5112 110.795L71.8173 111.018C71.3547 111.168 70.8912 111.315 70.4277 111.461C69.9651 111.609 69.4989 111.75 69.0336 111.892L68.3352 112.103L67.635 112.312L66.9357 112.521L66.2337 112.723C65.7657 112.858 65.2986 112.993 64.8288 113.125C64.3599 113.257 63.8919 113.392 63.4212 113.518C62.4825 113.78 61.5411 114.032 60.6006 114.288L59.7645 114.516L59.4639 115.304L59.4414 115.367L59.4243 115.419L59.3937 115.516L59.337 115.703C59.301 115.825 59.2677 115.945 59.2344 116.066C59.1696 116.306 59.1111 116.543 59.0562 116.782C59.0022 117.019 58.95 117.257 58.9041 117.494C58.8573 117.732 58.8141 117.969 58.7745 118.207C58.7349 118.444 58.698 118.682 58.6656 118.919C58.6485 119.038 58.6332 119.157 58.6188 119.276C58.6035 119.395 58.5891 119.514 58.5765 119.633C58.5495 119.872 58.527 120.11 58.5054 120.348C58.4874 120.586 58.4676 120.824 58.455 121.063C58.4397 121.301 58.4316 121.54 58.4217 121.779C58.4172 122.018 58.4082 122.256 58.41 122.494V122.852L58.4163 123.21C58.4199 123.449 58.4316 123.687 58.4406 123.925C58.4559 124.164 58.4649 124.402 58.4865 124.64L58.5153 124.996L58.5513 125.352C58.5675 125.527 58.59 125.707 58.6125 125.888C55.4985 127.539 53.3664 128.859 52.2306 129.598C51.0633 128.286 49.293 125.295 47.3697 118.483C46.3167 114.759 45.6147 111.265 45.3303 109.762ZM62.6895 116.426C62.6895 116.424 62.6895 116.425 62.6895 116.426V116.426Z" fill="black"/>
<path d="M90.1538 78.7059C91.297 76.9906 90.7695 74.7141 88.9754 73.6211C87.1814 72.528 84.8002 73.0324 83.657 74.7476C82.5137 76.4628 83.0413 78.7394 84.8353 79.8324C86.6293 80.9255 89.0105 80.4211 90.1538 78.7059Z" fill="black"/>
</svg>
