<svg width="90" height="90" viewBox="0 0 90 90" fill="none" xmlns="http://www.w3.org/2000/svg">
<path d="M45 8.4375C37.7686 8.4375 30.6996 10.5819 24.687 14.5994C18.6743 18.6169 13.988 24.3272 11.2207 31.0081C8.45333 37.6891 7.72927 45.0406 9.14004 52.133C10.5508 59.2254 14.0331 65.7402 19.1464 70.8536C24.2598 75.9669 30.7746 79.4492 37.867 80.86C44.9594 82.2707 52.3109 81.5467 58.9919 78.7793C65.6728 76.012 71.3831 71.3257 75.4006 65.313C79.4181 59.3004 81.5625 52.2314 81.5625 45C81.5523 35.3062 77.6969 26.0123 70.8423 19.1577C63.9877 12.3031 54.6938 8.44774 45 8.4375ZM26.0437 69.4336C28.0784 66.2515 30.8813 63.6329 34.1941 61.819C37.5069 60.005 41.2231 59.0543 45 59.0543C48.7769 59.0543 52.4931 60.005 55.8059 61.819C59.1187 63.6329 61.9216 66.2515 63.9562 69.4336C58.5363 73.6488 51.8661 75.9373 45 75.9373C38.1339 75.9373 31.4637 73.6488 26.0437 69.4336ZM33.75 42.1875C33.75 39.9625 34.4098 37.7874 35.646 35.9373C36.8821 34.0873 38.6391 32.6453 40.6948 31.7939C42.7505 30.9424 45.0125 30.7196 47.1948 31.1537C49.3771 31.5877 51.3816 32.6592 52.9549 34.2325C54.5283 35.8059 55.5998 37.8104 56.0338 39.9927C56.4679 42.175 56.2451 44.437 55.3936 46.4927C54.5422 48.5484 53.1002 50.3054 51.2502 51.5415C49.4001 52.7777 47.225 53.4375 45 53.4375C42.0163 53.4375 39.1548 52.2522 37.045 50.1424C34.9353 48.0327 33.75 45.1712 33.75 42.1875ZM68.1187 65.5348C64.982 60.9893 60.5713 57.4728 55.4414 55.4273C58.197 53.257 60.2078 50.2818 61.1941 46.9156C62.1805 43.5495 62.0933 39.9596 60.9448 36.6453C59.7963 33.3309 57.6435 30.4569 54.7859 28.4227C51.9282 26.3886 48.5077 25.2955 45 25.2955C41.4923 25.2955 38.0718 26.3886 35.2141 28.4227C32.3565 30.4569 30.2037 33.3309 29.0552 36.6453C27.9067 39.9596 27.8195 43.5495 28.8059 46.9156C29.7922 50.2818 31.803 53.257 34.5586 55.4273C29.4287 57.4728 25.018 60.9893 21.8813 65.5348C17.9176 61.0775 15.327 55.5695 14.4213 49.674C13.5155 43.7785 14.3334 37.7469 16.7763 32.3054C19.2192 26.864 23.183 22.2447 28.1904 19.0038C33.1978 15.763 39.0353 14.0388 45 14.0388C50.9647 14.0388 56.8022 15.763 61.8096 19.0038C66.817 22.2447 70.7808 26.864 73.2237 32.3054C75.6666 37.7469 76.4845 43.7785 75.5787 49.674C74.673 55.5695 72.0824 61.0775 68.1187 65.5348Z" fill="black"/>
</svg>
