<svg width="90" height="90" viewBox="0 0 90 90" fill="none" xmlns="http://www.w3.org/2000/svg">
<path d="M45 63.75C46.0625 63.75 46.9538 63.39 47.6738 62.67C48.3937 61.95 48.7525 61.06 48.75 60C48.75 58.9375 48.39 58.0475 47.67 57.33C46.95 56.6125 46.06 56.2525 45 56.25C43.9375 56.25 43.0475 56.61 42.33 57.33C41.6125 58.05 41.2525 58.94 41.25 60C41.25 61.0625 41.61 61.9537 42.33 62.6737C43.05 63.3937 43.94 63.7525 45 63.75ZM41.25 48.75H48.75V26.25H41.25V48.75ZM30.9375 78.75L11.25 59.0625V30.9375L30.9375 11.25H59.0625L78.75 30.9375V59.0625L59.0625 78.75H30.9375Z" fill="black"/>
</svg>
